<svg width="31" height="15" viewBox="0 0 31 15" fill="none" xmlns="http://www.w3.org/2000/svg">
<path d="M14.0909 15C13.7957 15 13.5322 14.8136 13.43 14.5329L9.16332 2.79214L7.00318 8.81571C6.90173 9.09786 6.63682 9.28571 6.34091 9.28571H0.704545C0.315636 9.28571 0 8.96643 0 8.57143C0 8.17643 0.315636 7.85714 0.704545 7.85714H5.84773L8.49752 0.47C8.59827 0.187857 8.85261 0.0107143 9.15909 0C9.4543 0 9.7178 0.186429 9.81995 0.467143L14.0909 12.2193L18.3619 0.467143C18.464 0.186429 18.7275 0 19.0227 0H19.0241C19.32 0.000714286 19.5835 0.188571 19.685 0.47L22.5032 8.32714L23.3768 10.5407L24.7598 8.20429C24.8867 7.98929 25.1163 7.85714 25.3636 7.85714H30.2955C30.6844 7.85714 31 8.17643 31 8.57143C31 8.96643 30.6844 9.28571 30.2955 9.28571H25.7624L23.8538 12.5107C23.7164 12.7436 23.4649 12.8764 23.1929 12.855C22.9266 12.8336 22.6941 12.6607 22.5948 12.4079L21.1857 8.83643L19.0178 2.79214L14.7511 14.5329C14.6496 14.8136 14.3861 15 14.0909 15Z" fill="#ECCF34"/>
</svg>
