<svg width="25" height="25" viewBox="0 0 25 25" fill="none" xmlns="http://www.w3.org/2000/svg">
<path d="M21.3357 3.66415C18.9749 1.30339 15.8394 0 12.4998 0C9.1602 0 6.02472 1.30339 3.66396 3.66415C-0.890059 8.21817 -1.21983 15.4941 2.83691 20.425C2.27682 21.5714 1.61727 22.3356 0.868736 22.7021C0.413334 22.9271 0.156843 23.4192 0.230126 23.9217C0.308644 24.4294 0.695997 24.822 1.20374 24.9005C1.48117 24.9424 1.77954 24.9686 2.08838 24.9686C3.62209 24.9686 5.23431 24.4399 6.57958 23.5134C8.39072 24.487 10.4269 25 12.4998 25C15.8394 25 18.9749 23.7018 21.3357 21.3411C23.6964 18.9803 24.9946 15.8396 24.9946 12.5052C24.9946 9.17085 23.6964 6.02492 21.3357 3.66415ZM20.3359 20.3361C18.2421 22.4299 15.4573 23.5814 12.4998 23.5814C10.5212 23.5814 8.57916 23.0528 6.88842 22.0582C6.77849 21.9954 6.65287 21.9588 6.53247 21.9588C6.38067 21.9588 6.22364 22.0111 6.09801 22.1053C4.49625 23.3459 2.88402 23.5291 2.17736 23.5448C3.02012 22.9167 3.72678 21.943 4.31828 20.5873C4.4282 20.3361 4.38109 20.0429 4.19788 19.8335C0.324347 15.4575 0.528493 8.78874 4.66375 4.65348C6.75756 2.55967 9.54231 1.40808 12.4998 1.40808C15.4573 1.40808 18.2421 2.55967 20.3359 4.65348C24.6596 8.98241 24.6596 16.0176 20.3359 20.3361Z" fill="#ECCF34"/>
<path d="M17.7338 8.37521H7.26476C6.87218 8.37521 6.55811 8.68928 6.55811 9.08187C6.55811 9.47446 6.87218 9.78853 7.26476 9.78853H17.7338C18.1264 9.78853 18.4404 9.47446 18.4404 9.08187C18.4404 8.68928 18.1211 8.37521 17.7338 8.37521Z" fill="#ECCF34"/>
<path d="M17.7338 11.7933H7.26476C6.87218 11.7933 6.55811 12.1074 6.55811 12.5C6.55811 12.8926 6.87218 13.2067 7.26476 13.2067H17.7338C18.1264 13.2067 18.4404 12.8926 18.4404 12.5C18.4404 12.1074 18.1211 11.7933 17.7338 11.7933Z" fill="#ECCF34"/>
<path d="M17.7338 15.2115H7.26476C6.87218 15.2115 6.55811 15.5255 6.55811 15.9181C6.55811 16.3107 6.87218 16.6248 7.26476 16.6248H17.7338C18.1264 16.6248 18.4404 16.3107 18.4404 15.9181C18.4404 15.5255 18.1211 15.2115 17.7338 15.2115Z" fill="#ECCF34"/>
</svg>
