<svg width="40" height="40" viewBox="0 0 40 40" fill="none" xmlns="http://www.w3.org/2000/svg">
<path d="M7.22812 23.9949C10.3764 26.1644 13.6397 27.3111 16.6655 27.3111C21.2696 27.3111 25.8632 24.6625 29.1998 21.4811L36.7063 29.0909L38.1816 27.62L30.665 20.0001L38.1816 12.38L36.7063 10.9091L29.1998 18.5189C25.8626 15.3373 21.2704 12.6889 16.6655 12.6889C13.6397 12.6889 10.3762 13.8357 7.22812 16.0051C4.88102 17.6226 3.4206 19.2308 3.35974 19.2985L2.72705 20.0001L3.35974 20.7015C3.4206 20.7692 4.88102 22.3777 7.22812 23.9949ZM16.6655 14.7779C21.6629 14.7779 26.0696 18.4324 27.7307 20.0012C26.0734 21.5706 21.6775 25.2224 16.6655 25.2224C11.6678 25.2224 7.26085 21.567 5.60054 19.9991C7.25787 18.4297 11.6534 14.7779 16.6655 14.7779Z" fill="#ECCF34"/>
</svg>
