<svg width="35" height="35" viewBox="0 0 35 35" fill="none" xmlns="http://www.w3.org/2000/svg">
<path d="M29.1562 6H5.09375C4.49 6 4 6.49 4 7.09375C4 7.6975 4.49 8.1875 5.09375 8.1875H29.1562C29.76 8.1875 30.25 7.6975 30.25 7.09375C30.25 6.49 29.76 6 29.1562 6Z" fill="#ECCF34"/>
<path d="M5.09375 13.1875H20.4062C21.01 13.1875 21.5 12.6975 21.5 12.0938C21.5 11.49 21.01 11 20.4062 11H5.09375C4.49 11 4 11.49 4 12.0938C4 12.6975 4.49 13.1875 5.09375 13.1875Z" fill="#ECCF34"/>
<path d="M28.9167 16H5.08333C4.48533 16 4 16.448 4 17C4 17.552 4.48533 18 5.08333 18H28.9167C29.5147 18 30 17.552 30 17C30 16.448 29.5147 16 28.9167 16Z" fill="#ECCF34"/>
<path d="M5.09375 23.1875H20.4062C21.01 23.1875 21.5 22.6975 21.5 22.0938C21.5 21.49 21.01 21 20.4062 21H5.09375C4.49 21 4 21.49 4 22.0938C4 22.6975 4.49 23.1875 5.09375 23.1875Z" fill="#ECCF34"/>
</svg>
