<svg width="27" height="27" viewBox="0 0 27 27" fill="none" xmlns="http://www.w3.org/2000/svg">
<path d="M13.5 21.2783C14.2281 21.2783 14.8184 20.6881 14.8184 19.96C14.8184 19.2319 14.2281 18.6416 13.5 18.6416C12.7719 18.6416 12.1816 19.2319 12.1816 19.96C12.1816 20.6881 12.7719 21.2783 13.5 21.2783Z" fill="#ECCF34"/>
<path d="M13.5 0C6.03893 0 0 6.03793 0 13.5C0 20.9611 6.03793 27 13.5 27C20.9611 27 27 20.9621 27 13.5C27 6.03893 20.9621 0 13.5 0ZM13.5 24.8906C7.20473 24.8906 2.10938 19.7961 2.10938 13.5C2.10938 7.20473 7.20388 2.10938 13.5 2.10938C19.7953 2.10938 24.8906 7.20388 24.8906 13.5C24.8906 19.7953 19.7961 24.8906 13.5 24.8906Z" fill="#ECCF34"/>
<path d="M13.5 6.77637C11.1738 6.77637 9.28125 8.6689 9.28125 10.9951C9.28125 11.5776 9.75343 12.0498 10.3359 12.0498C10.9184 12.0498 11.3906 11.5776 11.3906 10.9951C11.3906 9.83201 12.3369 8.88574 13.5 8.88574C14.6631 8.88574 15.6094 9.83201 15.6094 10.9951C15.6094 12.1582 14.6631 13.1045 13.5 13.1045C12.9175 13.1045 12.4453 13.5767 12.4453 14.1592V16.7959C12.4453 17.3784 12.9175 17.8506 13.5 17.8506C14.0825 17.8506 14.5547 17.3784 14.5547 16.7959V15.0804C16.3722 14.6109 17.7188 12.9573 17.7188 10.9951C17.7188 8.6689 15.8262 6.77637 13.5 6.77637Z" fill="#ECCF34"/>
</svg>
