<svg width="32" height="32" viewBox="0 0 32 32" fill="none" xmlns="http://www.w3.org/2000/svg">
<g clip-path="url(#clip0)">
<path d="M14.8978 1.39131H13.4688V8.56392H14.8978V1.39131Z" fill="#ECCF34"/>
<path d="M14.8978 1.39131H13.4688V8.56392H14.8978V1.39131Z" fill="#ECCF34"/>
<path d="M14.8978 9.99564H13.4688V16.7906H14.8978V9.99564Z" fill="#ECCF34"/>
<path d="M14.8978 9.99564H13.4688V16.7906H14.8978V9.99564Z" fill="#ECCF34"/>
<path d="M22.0521 7.13504H16.3301V8.56393H22.0521V7.13504Z" fill="#ECCF34"/>
<path d="M22.0521 7.13504H16.3301V8.56393H22.0521V7.13504Z" fill="#ECCF34"/>
<path d="M14.9007 7.13504H9.17871V8.56393H14.9007V7.13504Z" fill="#ECCF34"/>
<path d="M14.9007 7.13504H9.17871V8.56393H14.9007V7.13504Z" fill="#ECCF34"/>
<path d="M14.8991 9.99564H7.74805V11.4273H14.8991V9.99564Z" fill="#ECCF34"/>
<path d="M14.8991 9.99564H7.74805V11.4245H14.8991V9.99564Z" fill="#ECCF34"/>
<path d="M23.484 9.99564H16.3301V11.4273H23.484V9.99564Z" fill="#ECCF34"/>
<path d="M23.4812 9.99564H16.3301V11.4245H23.4812V9.99564Z" fill="#ECCF34"/>
<path d="M14.898 15.3589H7V16.7878H14.898V15.3589Z" fill="#ECCF34"/>
<path d="M14.898 15.3589H7V16.7878H14.898V15.3589Z" fill="#ECCF34"/>
<path d="M24.1999 15.3589H16.3301V16.7878H24.1999V15.3589Z" fill="#ECCF34"/>
<path d="M24.1971 15.3589H16.3301V16.7878H24.1971V15.3589Z" fill="#ECCF34"/>
<path d="M17.762 2.82303H16.3301V8.56394H17.762V2.82303Z" fill="#ECCF34"/>
<path d="M17.762 2.82303H16.3301V8.56394H17.762V2.82303Z" fill="#ECCF34"/>
<path d="M17.762 9.99564H16.3301V16.7906H17.762V9.99564Z" fill="#ECCF34"/>
<path d="M17.762 9.99564H16.3301V16.7906H17.762V9.99564Z" fill="#ECCF34"/>
<path d="M14.8978 18.2195H13.4688V31.0907H14.8978V18.2195Z" fill="#ECCF34"/>
<path d="M14.8978 18.2195H13.4688V31.0907H14.8978V18.2195Z" fill="#ECCF34"/>
<path d="M14.898 18.2195H7.74414V19.6512H14.898V18.2195Z" fill="#ECCF34"/>
<path d="M14.898 18.2195H7.74414V19.6512H14.898V18.2195Z" fill="#ECCF34"/>
<path d="M23.484 18.2195H16.3301V19.6512H23.484V18.2195Z" fill="#ECCF34"/>
<path d="M23.4812 18.2195H16.3301V19.6512H23.4812V18.2195Z" fill="#ECCF34"/>
<path d="M17.762 18.2195H16.3301V33.9513H17.762V18.2195Z" fill="#ECCF34"/>
<path d="M17.762 18.2195H16.3301V33.9513H17.762V18.2195Z" fill="#ECCF34"/>
</g>
<defs>
<clipPath id="clip0">
<rect width="32" height="32" fill="white"/>
</clipPath>
</defs>
</svg>
